<svg id="Logo" xmlns="http://www.w3.org/2000/svg" viewBox="0 0 600 290.04"><path d="M222,266.06h18.5a3.55,3.55,0,0,1,3.62,3.51L244,301.63a4.74,4.74,0,0,0,4.94,4.86l28.76-.05a4.75,4.75,0,0,0,4.95-4.9l-.12-41.73c0-16.46-13.74-29.85-30.62-29.85H210.58C193.69,230,180,243.35,180,259.81V380c0,16.46,13.74,29.85,30.63,29.85h41.33c16.88,0,30.62-13.39,30.62-29.85V353.39a4.75,4.75,0,0,0-4.94-4.87H249.05a4.75,4.75,0,0,0-4.94,4.87v16.93a3.54,3.54,0,0,1-3.62,3.46H222a3.54,3.54,0,0,1-3.61-3.46V269.52a3.54,3.54,0,0,1,3.61-3.46" transform="translate(-179.95 -159.86)"/><path d="M341.15,348.65l10.66-63.56,10.66,63.56ZM369.5,209.59H334.4a5.37,5.37,0,0,0-5.51,4.4l-36,200.73a4.49,4.49,0,0,0,.93,3.68,4.44,4.44,0,0,0,3.41,1.54h26.83a5.56,5.56,0,0,0,5.48-4.5l5.74-30.69h33.3l3.54,20.65a5.4,5.4,0,0,0,5.2,4.51h26.83a4.76,4.76,0,0,0,3.72-1.6,4.36,4.36,0,0,0,.9-3.63L375,214a5.53,5.53,0,0,0-5.46-4.41" transform="translate(-179.95 -159.86)"/><path d="M546.2,180h-32c-1.84,0-4.93,0-6.55,4.85l-20.93,58.77-24.55-79.93a6.3,6.3,0,0,0-5.93-3.79H427.67a4.74,4.74,0,0,0-4.94,4.86V405a4.74,4.74,0,0,0,4.94,4.86H456.2a4.74,4.74,0,0,0,4.94-4.86l.46-135,20.08,52.73a5.13,5.13,0,0,0,5.14,3.37,5.23,5.23,0,0,0,5.23-3.59c4.9-13.15,14.49-38.24,19.93-52.46l.13,175a4.74,4.74,0,0,0,4.94,4.86H545.6a4.91,4.91,0,0,0,4.94-4.86l0-260.43C550.56,181.83,549,180,546.2,180Z" transform="translate(-179.95 -159.86)"/><path d="M635.72,291.73a3.53,3.53,0,0,1-3.6,3.45H613.43V245.93h18.69a3.53,3.53,0,0,1,3.6,3.45Zm7.78-81.8H580a4.91,4.91,0,0,0-4.94,4.85L574.91,415a4.74,4.74,0,0,0,4.94,4.85h28.46a4.73,4.73,0,0,0,4.93-4.85l.19-83.78H643.5c16.85,0,30.55-13.36,30.55-29.77V239.69c0-16.41-13.7-29.76-30.55-29.76" transform="translate(-179.95 -159.86)"/><path d="M773.83,373.69H732.48l45.31-117.42a20.23,20.23,0,0,0,.64-4.42V236a6,6,0,0,0-6.12-6H694a6.13,6.13,0,0,0-6.12,6v24.49a6.13,6.13,0,0,0,6.12,6h39.05L687.63,383.21a9.93,9.93,0,0,0-1.07,4.54v16.14a6,6,0,0,0,6.12,6h81.15a6,6,0,0,0,6.12-6V379.68a6,6,0,0,0-6.12-6" transform="translate(-179.95 -159.86)"/></svg>